<svg xmlns="http://www.w3.org/2000/svg" viewBox="0 -0.308 57.06 58.949"><path d="M24.272 16.521c-.11-.65-.2-1.3-.33-1.95a1.25 1.25 0 0 1 1-1.57c.93-.17 1.86-.33 2.8-.47.69-.09 1.26.53 1.39 1.49.08.54.13 1.08.25 1.6.21.89.91 1.19 1.7 1.37l1.93.4a1.57 1.57 0 0 0 1.76-.69c.37-.52.75-1 1.14-1.55a1.15 1.15 0 0 1 1.63-.31c.76.54 1.51 1.09 2.26 1.65a1.15 1.15 0 0 1 .3 1.68 6.45 6.45 0 0 1-.73 1 2.1 2.1 0 0 0-.14 3c.37.52.67 1.09 1 1.61.333.514.952.766 1.55.63.66-.12 1.34-.18 2-.27a1.11 1.11 0 0 1 1.33.89c.18.88.35 1.78.47 2.68a1.26 1.26 0 0 1-1.29 1.56c-.56.07-1.12.14-1.66.26a1.768 1.768 0 0 0-1.4 1.4c-.19.77-.41 1.53-.55 2.31a1.54 1.54 0 0 0 .6 1.53c.54.41 1.1.8 1.65 1.19a1.14 1.14 0 0 1 .4 1.59 28.292 28.292 0 0 1-1.78 2.64 1.111 1.111 0 0 1-1.53.17c-.55-.37-1.08-.75-1.61-1.15a1.62 1.62 0 0 0-1.94-.08c-.65.39-1.29.78-1.92 1.19a1.72 1.72 0 0 0-.77 2c.12.598.203 1.202.25 1.81a1.21 1.21 0 0 1-1 1.31c-.91.16-1.82.32-2.73.46a1.29 1.29 0 0 1-1.31-1c-.11-.69-.23-1.37-.35-2.05a1.63 1.63 0 0 0-1.27-1.35 12.842 12.842 0 0 0-2.48-.55 2.184 2.184 0 0 0-1.43.58 9.287 9.287 0 0 0-1.28 1.66 1.09 1.09 0 0 1-1.65.4 25.058 25.058 0 0 1-2.33-1.63 1.13 1.13 0 0 1-.23-1.77l1.06-1.6a1.53 1.53 0 0 0 0-1.93c-.34-.48-.63-1-.92-1.48a2 2 0 0 0-2.48-1.15c-.55.11-1.1.22-1.65.29a1.25 1.25 0 0 1-1.21-.92c-.17-.91-.33-1.82-.47-2.74a1.28 1.28 0 0 1 1.21-1.53 16.38 16.38 0 0 0 1.72-.25 2 2 0 0 0 1.53-1.77c.15-.68.33-1.35.43-2a1.6 1.6 0 0 0-.59-1.5c-.54-.44-1.13-.82-1.7-1.22a1.27 1.27 0 0 1-.34-1.69 85.83 85.83 0 0 1 1.68-2.37 1.3 1.3 0 0 1 1.66-.16c.46.32.92.64 1.37 1a1.78 1.78 0 0 0 2.3.09c.6-.42 1.26-.76 1.86-1.19.545-.322.868-.918.84-1.55Zm10.11 12.67a5.35 5.35 0 0 0-5.35-5.39c-4.172 0-6.78 4.516-4.694 8.13a5.42 5.42 0 0 0 4.694 2.71 5.38 5.38 0 0 0 5.35-5.45Z"/><path d="M56.832 30.241c-1.17-.43-2.26-.81-3.33-1.24-.14-.06-.25-.38-.25-.57a22.795 22.795 0 0 0-1.48-8.42 24.984 24.984 0 0 0-4.14-7.23 24.222 24.222 0 0 0-5.9-5.26 22.745 22.745 0 0 0-8.18-3.33 44.295 44.295 0 0 0-4.45-.48 21.728 21.728 0 0 0-8.71 1.3c-1.22.42-2.38 1-3.57 1.54-.33.14-.36.32-.21.64.39.79.74 1.6 1.14 2.49l-10-.93 5.81-8.2 1.34 2.83c10.76-5.06 21.13-4.62 30.72 2.54 7.99 5.98 11.52 14.27 11.21 24.32ZM36.332 58.501c-.22-.72-.42-1.32-.58-1.93-.1-.38-.32-.45-.65-.36a26.54 26.54 0 0 1-7.27.8 28.786 28.786 0 0 1-5.7-.71 27.114 27.114 0 0 1-9.53-4.11 38.773 38.773 0 0 1-3.57-2.87 27.003 27.003 0 0 1-6.22-8.36 28.46 28.46 0 0 1-2.31-7 35.76 35.76 0 0 1-.47-7.48c.032-.336.082-.67.15-1h3.48c-.73 11.44 3.77 20.1 14 25.43a23.443 23.443 0 0 0 16.84 1.73l-.91-2.95 8.93 2-6.19 6.81Z"/></svg>