<svg xmlns="http://www.w3.org/2000/svg" viewBox="0 0 32.603 39.025"><path d="M3.603 30.18V27.1h-1.68a1.721 1.721 0 0 1-1.89-1.87v-2.55a1.7 1.7 0 0 1 1.75-1.78h1.82v-3.07h-1.66a1.73 1.73 0 0 1-1.91-1.89v-2.48a1.72 1.72 0 0 1 1.81-1.81h1.76v-3h-1.84a1.71 1.71 0 0 1-1.73-1.72V4.14a1.68 1.68 0 0 1 1.7-1.69h1.9V1c0-.7.28-1 1-1h26.85c.7 0 1 .29 1 1v36.87c0 .8-.28 1.07-1.08 1.07H4.723c-.85 0-1.09-.24-1.09-1.08v-1.48h-1.62a1.8 1.8 0 0 1-2-2c.05-.8 0-1.62 0-2.43a1.7 1.7 0 0 1 1.78-1.78l1.81.01Zm27.21 7V1.68H5.283v.78h1.62a1.699 1.699 0 0 1 1.78 1.78v2.48a1.74 1.74 0 0 1-1.94 1.94h-1.47v3.1h1.61a1.7 1.7 0 0 1 1.8 1.8v2.47a1.74 1.74 0 0 1-1.92 1.93h-1.49v3.07h1.6a1.71 1.71 0 0 1 1.81 1.79v2.64a2.922 2.922 0 0 1-.06.51 1.73 1.73 0 0 1-1.69 1.27h-1.65v3h1.59a1.72 1.72 0 0 1 1.81 1.8v2.56a1.73 1.73 0 0 1-1.87 1.86h-1.53v.68l25.53.04ZM1.653 4.13v2.73c0 .06.17.19.26.19h4.86c.09 0 .25-.13.25-.2V4.13h-5.37Zm0 9.24v2.71c.05.104.146.179.26.2h4.86c.09 0 .26-.12.26-.19v-2.72h-5.38Zm0 9.27v2.72c0 .07.16.19.26.19h4.85c.09 0 .26-.12.26-.19v-2.72h-5.37Zm5.38 12.13v-2.88h-5.35v2.88h5.35Z"/><path d="M18.923 2.92h7c.83 0 1.09.26 1.09 1.1v5.5c0 .76-.28 1.05-1 1.05h-14.25c-.75 0-1-.29-1-1V3.98c0-.8.27-1.06 1.09-1.06h7.07Zm-6.54 6h13v-4.3h-13v4.3ZM19.423 13.3h8.18c.172-.009.344.008.51.05a.8.8 0 0 1 0 1.55c-.159.02-.32.02-.48 0h-16.77a.82.82 0 0 1 0-1.63h.4l8.16.03ZM19.423 22.46h-8.14a3.23 3.23 0 0 1-.44 0 .811.811 0 0 1-.73-.81.83.83 0 0 1 .72-.79h17.15a.809.809 0 0 1 .72.82.79.79 0 0 1-.71.78 3.922 3.922 0 0 1-.46 0h-8.11ZM19.393 18.73h-8.53a.81.81 0 0 1 0-1.61h16.74c.133-.01.267-.01.4 0a.81.81 0 0 1 0 1.6h-8.61v.01Z"/></svg>