<svg xmlns="http://www.w3.org/2000/svg" viewBox="0 0 51 44"><path d="M25.55 37.21a2.5 2.5 0 1 1 0-5 2.5 2.5 0 0 1 0 5Zm0-7.71c-.45 0-.883-.165-1.202-.46a1.514 1.514 0 0 1-.498-1.111L23 15.357c0-.416.531-1.277.85-1.571.319-.295 1.25-.786 1.7-.786.45 0 1.381.491 1.7.786.319.294.85 1.155.85 1.571l-.85 12.572c0 .417-.18.816-.498 1.111-.319.295-.751.46-1.202.46Z"/><path d="M45.526 44.006H5.474a5.773 5.773 0 0 1-2.711-.652A5.248 5.248 0 0 1 .765 41.54a4.648 4.648 0 0 1-.764-2.447 4.625 4.625 0 0 1 .662-2.472L20.689 2.63A5.284 5.284 0 0 1 22.706.705 5.836 5.836 0 0 1 25.5 0a5.84 5.84 0 0 1 2.794.706 5.284 5.284 0 0 1 2.017 1.923l20.026 33.99c.452.757.68 1.61.662 2.473a4.648 4.648 0 0 1-.764 2.447 5.248 5.248 0 0 1-1.998 1.815 5.773 5.773 0 0 1-2.711.652ZM25.5 3.148a2.135 2.135 0 0 0-1.062.256 1.93 1.93 0 0 0-.757.734L3.655 38.113c-.18.275-.275.59-.275.911 0 .322.095.637.275.912.174.276.422.506.72.668.297.162.635.251.98.259h40.171c.345-.008.683-.097.98-.26.298-.161.546-.391.72-.667.18-.275.275-.59.275-.912 0-.321-.095-.636-.275-.911L27.319 4.138a1.927 1.927 0 0 0-.757-.734 2.135 2.135 0 0 0-1.062-.256Z"/></svg>
