<svg width="41" height="41" viewBox="0 0 41 41" fill="none" xmlns="http://www.w3.org/2000/svg">
    <path fill-rule="evenodd" clip-rule="evenodd"
          d="M20.3924 0.34375H20.6076C24.9358 0.343726 28.3278 0.343707 30.9743 0.699525C33.6832 1.06372 35.8207 1.82374 37.4985 3.50151C39.1763 5.17927 39.9363 7.31682 40.3005 10.0257C40.6563 12.6722 40.6563 16.0642 40.6562 20.3924V20.6076C40.6563 24.9358 40.6563 28.3278 40.3005 30.9743C39.9363 33.6832 39.1763 35.8207 37.4985 37.4985C35.8207 39.1763 33.6832 39.9363 30.9743 40.3005C28.3278 40.6563 24.9358 40.6563 20.6076 40.6562H20.3924C16.0642 40.6563 12.6722 40.6563 10.0257 40.3005C7.31682 39.9363 5.17927 39.1763 3.50151 37.4985C1.82374 35.8207 1.06372 33.6832 0.699525 30.9743C0.343707 28.3278 0.343726 24.9358 0.34375 20.6076V20.3924C0.343726 16.0642 0.343707 12.6722 0.699525 10.0257C1.06372 7.31682 1.82374 5.17927 3.50151 3.50151C5.17927 1.82374 7.31682 1.06372 10.0257 0.699525C12.6722 0.343707 16.0642 0.343726 20.3924 0.34375ZM10.4005 3.48695C8.00345 3.80921 6.55835 4.42214 5.49024 5.49024C4.42214 6.55835 3.80921 8.00345 3.48695 10.4005C3.15924 12.8379 3.15625 16.0408 3.15625 20.5C3.15625 24.9592 3.15924 28.1621 3.48695 30.5995C3.80921 32.9966 4.42214 34.4417 5.49024 35.5098C6.55835 36.5779 8.00345 37.1908 10.4005 37.5131C12.8379 37.8408 16.0408 37.8438 20.5 37.8438C24.9592 37.8438 28.1621 37.8408 30.5995 37.5131C32.9966 37.1908 34.4417 36.5779 35.5098 35.5098C36.5779 34.4417 37.1908 32.9966 37.5131 30.5995C37.8408 28.1621 37.8438 24.9592 37.8438 20.5C37.8438 16.0408 37.8408 12.8379 37.5131 10.4005C37.1908 8.00345 36.5779 6.55835 35.5098 5.49024C34.4417 4.42214 32.9966 3.80921 30.5995 3.48695C28.1621 3.15924 24.9592 3.15625 20.5 3.15625C16.0408 3.15625 12.8379 3.15924 10.4005 3.48695ZM17.7198 10.1067C18.2822 10.6423 18.3039 11.5324 17.7683 12.0948L12.4112 17.7198C12.1458 17.9985 11.7777 18.1562 11.3929 18.1562C11.008 18.1562 10.64 17.9985 10.3745 17.7198L8.23168 15.4698C7.69606 14.9074 7.71777 14.0173 8.28017 13.4817C8.84258 12.9461 9.7327 12.9678 10.2683 13.5302L11.3929 14.7109L15.7317 10.1552C16.2673 9.59277 17.1574 9.57106 17.7198 10.1067ZM20.9688 14.875C20.9688 14.0984 21.5984 13.4688 22.375 13.4688H31.75C32.5266 13.4688 33.1562 14.0984 33.1562 14.875C33.1562 15.6517 32.5266 16.2812 31.75 16.2812H22.375C21.5984 16.2812 20.9688 15.6517 20.9688 14.875ZM17.7198 23.2317C18.2822 23.7673 18.3039 24.6574 17.7683 25.2198L12.4112 30.8448C12.1458 31.1235 11.7777 31.2812 11.3929 31.2812C11.008 31.2812 10.64 31.1235 10.3745 30.8448L8.23168 28.5948C7.69606 28.0324 7.71777 27.1423 8.28017 26.6067C8.84258 26.0711 9.7327 26.0928 10.2683 26.6552L11.3929 27.8359L15.7317 23.2802C16.2673 22.7178 17.1574 22.6961 17.7198 23.2317ZM20.9688 28C20.9688 27.2234 21.5984 26.5938 22.375 26.5938H31.75C32.5266 26.5938 33.1562 27.2234 33.1562 28C33.1562 28.7766 32.5266 29.4062 31.75 29.4062H22.375C21.5984 29.4062 20.9688 28.7766 20.9688 28Z"
          fill="#0054A5"/>
</svg>
