<svg xmlns="http://www.w3.org/2000/svg" viewBox="0 0 47.99 57.9"><path d="M2.97 57.9a.8.8 0 0 0-.25-.11A3.38 3.38 0 0 1 0 54.42V3.2A3.31 3.31 0 0 1 2.5.15 6.24 6.24 0 0 1 3.8.01h40.8a3.3 3.3 0 0 1 3.36 3.32V54.6a3.4 3.4 0 0 1-2.42 3.13l-.74.16Zm42.93-29V3.31a1.06 1.06 0 0 0-.51-1 2.06 2.06 0 0 0-.92-.2H3.34a1.18 1.18 0 0 0-1.25 1 3.43 3.43 0 0 0 0 .64v50.76a1.13 1.13 0 0 0 .5 1.09 2.17 2.17 0 0 0 1 .23h41.23a1.15 1.15 0 0 0 .88-.51 1.77 1.77 0 0 0 .24-1v-12.7Z"/><path d="M34.58 33.93a7.78 7.78 0 0 1 3.13.51 8.93 8.93 0 0 1 3.54 2.31 9.42 9.42 0 0 1 2.57 5.58 8.81 8.81 0 0 1-1.41 5.94 9.2 9.2 0 0 1-7 4.31 8.58 8.58 0 0 1-4.6-.77c-.18-.09-.18-.19-.1-.36l2.11-4.36c.54-1.13 1.08-2.26 1.59-3.4a2.24 2.24 0 0 0 .2-.92v-8.4Z"/><path d="M29.08 51.98a5.9 5.9 0 0 1-1.85-1.13 9.52 9.52 0 0 1-2.54-3.29 8.25 8.25 0 0 1-.81-3.23c0-.55 0-.55.55-.55h8.59ZM35.04 26.33h-6.69a1.39 1.39 0 0 1-1.23-.56 1.26 1.26 0 0 1-.15-1.33 1.33 1.33 0 0 1 1.33-.79h13.4a1.4 1.4 0 0 1 1.42.9 1.33 1.33 0 0 1-1.3 1.78h-6.78ZM13.46 32.89h6.79a1.33 1.33 0 0 1 1.21 2 1.35 1.35 0 0 1-1.27.67H7.26a3.66 3.66 0 0 1-1-.1 1.27 1.27 0 0 1-1-1.42 1.5 1.5 0 0 1 1.38-1.17c2.3.03 4.56.02 6.82.02ZM13.46 49.98h6.82a1.22 1.22 0 0 1 1.19.65 1.27 1.27 0 0 1-.11 1.45 1.4 1.4 0 0 1-1.24.53H6.68a1.31 1.31 0 0 1-1.39-1.28 1.27 1.27 0 0 1 1.36-1.3ZM13.49 44.06H6.7a1.31 1.31 0 0 1-1.25-1.93 1.29 1.29 0 0 1 1.19-.69h13.58a1.31 1.31 0 1 1 0 2.62h-6.76ZM35.02 15.12h6.8a1.34 1.34 0 0 1 1.33 1.76 1.42 1.42 0 0 1-1.4.87H28.27a1.37 1.37 0 0 1-1.36-1 1.31 1.31 0 0 1 1.29-1.65ZM35 6.61h6.88a1.31 1.31 0 0 1 1.28.9 1.34 1.34 0 0 1-.42 1.39 1.71 1.71 0 0 1-1.24.33H28.15a1.29 1.29 0 0 1-1.22-1.82 1.26 1.26 0 0 1 1.21-.8ZM14.61 25.48H6.47c-.72 0-.91-.19-.9-.92V8.26a1.32 1.32 0 0 1 .2-.68.43.43 0 0 1 .78.15 1.75 1.75 0 0 1 .09.6v15.58c0 .57 0 .52.51.52h15.48a3.07 3.07 0 0 1 .6.07.42.42 0 0 1 .36.49c0 .17-.26.33-.43.45s-.25 0-.38 0Z"/><path d="M22.47 11.33v1.34q0 5.1.05 10.22a3.42 3.42 0 0 1 0 .45c0 .49 0 .49-.55.49h-1.26c-.22 0-.31-.06-.31-.29v-8.59a1.49 1.49 0 0 1 .23-.72c.53-1 1.09-1.89 1.63-2.83a.76.76 0 0 1 .09-.09ZM22.71 10.15l-.3-.24c-.17.28-.34.53-.49.79l-3.3 5.68v.05c-.42.71-.46.73-1.25.48l-1.77-.58c-.42-.14-.46-.1-.65.3-.56 1.18-1.13 2.35-1.7 3.52a.35.35 0 0 1-.52.2l-1.8-.76c-.36-.15-.71-.3-1.06-.47s-.38-.08-.52.18c-.66 1.36-1.34 2.71-2 4-.06.12-.12.22-.21.38a4 4 0 0 1 .45-2.67 18.46 18.46 0 0 0 1.13-2.27c.35-.76.49-.83 1.26-.5s1.63.69 2.44 1.05c.25.11.36 0 .46-.2.56-1.19 1.12-2.38 1.69-3.56.15-.31.3-.34.67-.22.72.23 1.45.45 2.17.69a.43.43 0 0 0 .59-.25l3.55-6.05c.16-.29.16-.3-.15-.45L23 8.04ZM33.48 37.6v4.21c0 .29-.07.38-.38.38h-8.49c-.29 0-.36-.08-.36-.36a8.59 8.59 0 0 1 1.13-4.1 9.44 9.44 0 0 1 3.2-3.4 8.53 8.53 0 0 1 4.58-1.42c.25 0 .33.09.33.34-.01 1.46-.01 2.9-.01 4.35Zm-.5 0v-3.77c0-.46 0-.47-.48-.41a8.92 8.92 0 0 0-7.77 7.91c0 .36 0 .43.4.44h7.46c.31 0 .4-.09.4-.4-.02-1.27-.01-2.53-.01-3.78Z"/><path d="M19.24 23.86h-1.83c-.05 0-.14-.19-.14-.29v-5.92c1.16.06 1.16.06 2-.93ZM16.13 23.86h-1.91c-.06 0-.17-.13-.17-.2 0-1.14 0-2.27.07-3.41a2.89 2.89 0 0 1 .33-1c.29-.64.61-1.27.92-1.91.07-.14.11-.33.33-.24s.45.07.45.4v6.17l-.02.19ZM10.82 20.33l1 .41c.34.14.81.2 1 .46s.06.72.07 1.09v1.54h-2.07ZM9.72 20.33v3.28c0 .09-.11.25-.17.25H7.87l1.78-3.53Z"/></svg>