<?xml version="1.0" encoding="utf-8"?>
<svg viewBox="0 0 73.754 71.709" xmlns="http://www.w3.org/2000/svg">
  <path class="cls-1" d="M 73.42 9.72 L 73.42 61.92 C 73.36 62.13 73.29 62.35 73.25 62.56 C 72.942 64.473 72.104 66.26 70.83 67.72 C 69.704 69.043 68.273 70.073 66.66 70.72 C 65.539 71.21 64.334 71.478 63.11 71.51 C 45.944 71.51 28.774 71.51 11.6 71.51 C 10.315 71.546 9.032 71.394 7.79 71.06 C 4.684 70.145 2.142 67.9 0.85 64.93 C 0.336 63.832 0.047 62.642 0 61.43 C 0 44.41 0 27.41 0 10.43 C 0.018 9.426 0.204 8.433 0.55 7.49 C 1.201 5.529 2.398 3.795 4 2.49 C 5.502 1.252 7.314 0.45 9.24 0.17 L 10.03 0 L 63.42 0 C 63.487 0.038 63.557 0.068 63.63 0.09 C 64.871 0.205 66.081 0.544 67.2 1.09 C 68.701 1.802 70.02 2.845 71.06 4.14 C 72.138 5.47 72.876 7.042 73.21 8.72 C 73.28 9.06 73.42 9.39 73.42 9.72 Z M 36.7 67.35 L 62.7 67.35 C 62.887 67.36 63.074 67.36 63.26 67.35 C 64.966 67.142 66.534 66.308 67.66 65.01 C 68.734 63.801 69.322 62.237 69.31 60.62 C 69.31 44.1 69.31 27.577 69.31 11.05 C 69.312 10.715 69.285 10.381 69.23 10.05 C 68.966 8.445 68.136 6.987 66.89 5.94 C 65.762 4.936 64.31 4.372 62.8 4.35 C 45.427 4.35 28.057 4.35 10.69 4.35 C 10.355 4.344 10.02 4.371 9.69 4.43 C 8.182 4.731 6.817 5.527 5.81 6.69 C 4.734 7.898 4.142 9.462 4.15 11.08 C 4.15 27.6 4.15 44.12 4.15 60.64 C 4.148 60.976 4.178 61.311 4.24 61.64 C 4.503 63.233 5.326 64.68 6.56 65.72 C 7.691 66.72 9.141 67.284 10.65 67.31 L 36.7 67.35 Z" transform="matrix(1, 0, 0, 1, 0, -7.105427357601002e-15)"/>
  <path class="cls-1" d="M 34.63 24.22 C 29.106 22.623 27.383 15.645 31.528 11.659 C 35.674 7.674 42.579 9.671 43.957 15.253 C 44.919 19.147 42.634 23.106 38.78 24.22 L 38.78 24.72 C 38.78 35.82 38.78 46.917 38.78 58.01 C 38.797 59.195 37.865 60.177 36.68 60.22 C 35.501 60.182 34.572 59.2 34.6 58.02 C 34.6 46.927 34.6 35.834 34.6 24.74 L 34.63 24.22 Z M 33.42 16.99 C 33.37 18.811 34.829 20.315 36.65 20.32 C 38.388 20.298 39.816 18.944 39.93 17.21 C 39.982 15.377 38.571 13.833 36.74 13.72 C 34.928 13.725 33.453 15.178 33.42 16.99 Z" transform="matrix(1, 0, 0, 1, 0, -7.105427357601002e-15)"/>
  <path class="cls-1" d="M 55.18 51.23 C 54.167 50.921 53.227 50.407 52.42 49.72 C 51.197 48.717 50.345 47.334 50 45.79 C 49.07 42.005 51.215 38.141 54.92 36.93 C 55.24 36.82 55.2 36.63 55.2 36.41 L 55.2 19.46 C 55.2 17.46 55.2 15.46 55.2 13.46 C 55.176 12.682 55.605 11.96 56.3 11.61 C 56.95 11.24 57.753 11.263 58.38 11.67 C 59 12.011 59.384 12.663 59.38 13.37 C 59.38 21.024 59.38 28.67 59.38 36.31 C 59.38 36.69 59.51 36.82 59.86 36.95 C 65.281 38.871 66.589 45.939 62.216 49.672 C 61.499 50.285 60.672 50.755 59.78 51.06 C 59.518 51.101 59.338 51.348 59.38 51.61 C 59.38 53.81 59.38 56.01 59.38 58.21 C 59.393 58.993 58.925 59.704 58.2 60 C 56.789 60.683 55.156 59.627 55.2 58.06 C 55.2 55.92 55.2 53.79 55.2 51.65 L 55.18 51.23 Z M 57.24 40.72 C 54.715 40.72 53.137 43.454 54.4 45.64 C 54.986 46.655 56.069 47.28 57.24 47.28 C 59.765 47.28 61.343 44.547 60.081 42.36 C 59.495 41.345 58.412 40.72 57.24 40.72 Z" transform="matrix(1, 0, 0, 1, 0, -7.105427357601002e-15)"/>
  <path class="cls-1" d="M 14.08 43.06 C 8.515 41.44 6.79 34.403 10.975 30.393 C 11.851 29.554 12.916 28.939 14.08 28.6 L 14.08 28.13 C 14.08 23.23 14.08 18.34 14.08 13.44 C 14.111 12.645 14.581 11.932 15.3 11.59 C 16.078 11.236 16.992 11.39 17.61 11.98 C 18.043 12.38 18.277 12.951 18.25 13.54 C 18.25 18.43 18.25 23.32 18.25 28.2 C 18.207 28.469 18.383 28.725 18.65 28.78 C 21.176 29.618 23.041 31.771 23.51 34.39 C 23.925 36.311 23.531 38.319 22.42 39.94 C 21.556 41.306 20.245 42.331 18.71 42.84 C 18.391 42.891 18.172 43.19 18.22 43.51 C 18.22 48.39 18.22 53.26 18.22 58.13 C 18.234 59.739 16.501 60.759 15.101 59.966 C 14.623 59.696 14.271 59.248 14.12 58.72 C 14.095 58.571 14.095 58.419 14.12 58.27 L 14.12 43.06 L 14.08 43.06 Z M 16.14 39.06 C 18.017 39.074 19.518 37.505 19.42 35.63 C 19.287 33.816 17.715 32.45 15.9 32.57 C 14.2 32.701 12.89 34.125 12.9 35.83 C 12.878 37.629 14.342 39.093 16.14 39.07 L 16.14 39.06 Z" transform="matrix(1, 0, 0, 1, 0, -7.105427357601002e-15)"/>
</svg>
