<svg xmlns="http://www.w3.org/2000/svg" viewBox="0 0 48.568 50.93"><path d="M24.342 45.843c-6.81 0-13.56.06-20.31 0-1.94 0-3.59-1.84-3.92-3.79a10.805 10.805 0 0 1-.11-1.77v-30.28a7.183 7.183 0 0 1 .75-3.38c1.21-2.21 3.36-2.51 5.76-2.24.06 1.42.07 2.91 1.38 3.8a3.414 3.414 0 0 0 1.8.6c1.69 0 2.45-1.2 2.94-4.4h16.37c0 1.42.05 2.89 1.33 3.8.527.365 1.149.57 1.79.59 1.76 0 2.61-1.32 2.94-4.31 3.8-.79 6.53 1.38 6.54 5.2v16.12c-1.13 0-1.65-.38-1.61-1.61.1-2.79 0-5.58 0-8.46H1.622c0 .38-.07.75-.07 1.12v23.51c0 2.85 1.17 4 4.06 4h16.74c1.1-.06 1.74.26 1.99 1.5Z"/><path d="M36.272 50.713c-9.238 0-15.011-10-10.392-18s16.166-8 20.784 0a11.99 11.99 0 0 1 1.608 6c0 6.627-5.373 12-12 12Zm-10.05-12.15c-.069 7.697 8.221 12.583 14.922 8.794 6.701-3.789 6.787-13.411.155-17.32a9.99 9.99 0 0 0-5.027-1.384c-5.507-.028-10 4.402-10.05 9.91ZM34.712 21.283c0 2.77 0 2.77-2.77 2.78-2.93 0-2.95 0-2.93-3 0-3.15-.42-2.71 2.72-2.73 2.98 0 2.98.02 2.98 2.95ZM17.132 24.063c-2.82 0-2.82 0-2.82-2.84s0-2.89 2.91-2.87c3.11 0 2.78-.49 2.78 2.79.01 2.91 0 2.91-2.87 2.92ZM25.002 24.053c-2.87 0-2.87 0-2.87-2.9s0-2.82 2.85-2.8c3.23 0 2.85-.49 2.84 2.85-.01 3.34.45 2.81-2.82 2.85ZM12.532 37.693c0 2.68 0 2.68-2.62 2.68-3.07 0-3.09 0-3.07-3 .02-3-.41-2.63 2.69-2.64 3.1-.01 3-.05 3 2.96ZM20.342 37.553c0 2.82 0 2.82-2.83 2.82s-2.86 0-2.86-2.92c0-2.76 0-2.76 2.8-2.77 2.8-.01 2.89 0 2.89 2.87ZM9.302 24.063c-2.81 0-2.81 0-2.81-2.85s0-2.86 2.91-2.86 2.76 0 2.76 2.79v.14c0 2.78 0 2.78-2.86 2.78ZM9.532 26.553c2.8 0 2.8 0 2.8 2.85s0 2.85-2.84 2.84c-3.26 0-2.8.38-2.82-2.77-.02-2.92.04-2.92 2.86-2.92ZM17.352 26.553c2.8 0 2.8 0 2.81 2.84.01 2.84 0 2.89-2.85 2.89-3.24 0-2.77.45-2.81-2.76v-.11c0-2.86 0-2.86 2.85-2.86ZM33.902 3.933c0 .76.06 1.52 0 2.28-.277 1.428-1.997 2.02-3.095 1.066a1.892 1.892 0 0 1-.635-1.186c-.06-1.52-.06-3 0-4.57 0-1.1.88-1.47 1.82-1.49.94-.02 1.79.29 1.91 1.39a23.35 23.35 0 0 1 0 2.51ZM7.652 3.753v-1.94a1.7 1.7 0 0 1 1.89-1.8 1.7 1.7 0 0 1 1.9 1.8c.04 1.333.04 2.666 0 4 .106 1.458-1.407 2.485-2.723 1.847a1.899 1.899 0 0 1-1.067-1.847c-.02-.69 0-1.37 0-2.06ZM25.192 26.553h2.06a.908.908 0 0 1 .67.44c.046.281-.031.568-.21.79-1.13 1.37-2.27 2.75-3.49 4a2.068 2.068 0 0 1-1.42.3c-.18 0-.44-.56-.45-.87v-3.77c0-.67.22-1 .93-1 .71 0 1.26.11 1.91.11Z"/><path d="M37.202 37.363h4.57c.38 0 .85-.11 1.12.07.27.18.93.73 1 1.16.07.43-.6 1-1 1-2.33.1-4.67.12-7 0-.37 0-1-.78-1-1.22-.1-2.06 0-4.13 0-6.19v-.45c.35-.42.74-.82 1.12-1.22.37.41 1 .79 1.07 1.25.097 1.331.124 2.666.08 4l.04 1.6Z"/></svg>