<svg xmlns="http://www.w3.org/2000/svg" viewBox="0 0 38.033 45"><path d="M10.301 22.229a8.943 8.943 0 0 0-8.881 7.898L.011 42.099a1.627 1.627 0 0 0 3.231.381l1.409-11.973a5.688 5.688 0 0 1 4.023-4.788v9.093c0 1.948 0 3.573.174 4.863.183 1.361.585 2.591 1.573 3.578.988.988 2.217 1.391 3.579 1.574 1.289.173 2.914.173 4.863.173h.226c1.949 0 3.573 0 4.863-.173 1.362-.183 2.59-.586 3.578-1.574.988-.987 1.391-2.217 1.574-3.578.174-1.29.174-2.915.174-4.863v-9.093a5.69 5.69 0 0 1 4.023 4.788L34.71 42.48a1.628 1.628 0 0 0 3.231-.381l-1.409-11.972a8.943 8.943 0 0 0-8.882-7.898H10.301Z"/><circle cx="19.017" cy="8.529" r="8.529"/></svg>
